<svg xmlns="http://www.w3.org/2000/svg" width="40" height="40" fill="none" xmlns:v="https://vecta.io/nano"><rect width="40" height="40" rx="8" fill="url(#A)"/><path fill-rule="evenodd" d="M14.352 8.009c-.086.013-.256.118-.379.233-.222.208-.223.212-.177.716l.115 1.352.211 4.783c-.216.133-.335-.068-2.347-3.97-.69-1.338-.821-1.479-1.248-1.338-.677.223-.623.561.458 2.9l.252.573c0 .015.122.292.271.615.807 1.752 1.017 2.464.757 2.564-.185.071-.513-.105-.784-.42l-.376-.431-.437-.528-.347-.422a65.52 65.52 0 0 1-.723-.855l-.796-.862c-.345-.132-.801.129-.801.458 0 .287.691 1.444 2.129 3.563.901 1.328 1.113 1.806 1.317 2.973.432 2.471 1.02 3.987 1.781 4.589.518.41.532.413 1.752.361l1.117-.048.848-1.132.93-1.238c.325-.422 1.172-1.916 1.172-2.068 0-.022-.44-.02-.977.005-.662.03-1.122.016-1.425-.042-.525-.102-1.186-.403-1.549-.705-.572-.476-.741-1.322-.384-1.93.266-.455.636-.65 1.413-.746.628-.078 1.299-.261 2.271-.619l.51-.188v-.822c0-.842.161-3.777.282-5.161.096-1.088.097-1.077-.17-1.344-.185-.185-.298-.239-.496-.239-.498 0-.526.069-1.019 2.569l-.542 2.813c-.118.676-.21.925-.366.984-.203.078-.394-.24-.485-.811l-.268-1.686-.641-3.797c-.048-.24-.363-.599-.566-.645-.07-.016-.197-.018-.283-.005zm9.372 7.241a13.73 13.73 0 0 0-1.637.593l-.482.201c-.023 0-.615.284-1.317.631-1.482.733-3.199 1.339-3.793 1.339-.408 0-.848.181-.882.362-.038.203.39.605.817.768.379.144.478.15 1.834.11 1.213-.036 1.47-.025 1.664.067.335.159.427.43.316.93-.113.51-.742 1.773-1.249 2.506l-3.431 4.566c-.407.528-.425.797-.077 1.144.45.45.392.49 2.811-1.941 2.258-2.269 2.446-2.418 2.548-2.011.062.247.076.211-.927 2.352l-.309.681a11.3 11.3 0 0 1-.255.572c-1.15 2.486-1.197 2.653-.864 3.076.119.151.201.183.473.181.181-.001.378-.041.437-.088s.405-.624.768-1.282l1.325-2.371c1.168-2.034 1.162-2.026 1.373-2.026.135 0 .139.033.097.862-.038.757-.134 1.659-.399 3.746-.1.788-.087 1.45.031 1.606.139.184.623.236.844.091.227-.149.333-.525.597-2.119.558-3.378.698-4.021.919-4.221.136-.123.146-.123.288.006.081.073.176.187.212.254s.142.858.237 1.759c.267 2.538.29 2.669.499 2.853.231.203.466.201.708-.007.184-.158.195-.204.255-1.108.035-.519.049-1.544.032-2.28-.034-1.432.032-2.63.168-3.048.046-.142.265-.685.488-1.208l.702-1.864c.504-1.55.466-2.795-.103-3.367-.121-.121-.485-.363-.808-.537-.414-.222-.803-.517-1.308-.992-.577-.543-.783-.692-1.04-.757a5.63 5.63 0 0 0-1.56-.031zm5.489 2.057c-.027.086.024.322.127.584.228.58.28 1.09.181 1.776-.128.884-.122.981.056 1.007.241.034.364-.239.453-1.011.098-.84.012-1.48-.277-2.071-.208-.425-.454-.555-.54-.285zm1.278.243c-.021.054.026.299.104.545.184.579.149 1.495-.085 2.192-.146.436-.15.489-.049.59.24.24.486-.091.653-.881.177-.837.103-1.876-.172-2.389-.093-.174-.393-.212-.452-.057zm-19.448 6.034c-.145.145-.098.351.207.902.517.935 1.765 2.006 2.057 1.764.207-.171.125-.329-.309-.597-.542-.334-1.019-.877-1.376-1.567-.285-.55-.417-.664-.579-.502zm-1 .444c-.111.134-.022.466.302 1.127.446.907 1.41 1.837 1.763 1.702.187-.072.139-.355-.082-.486-.587-.347-1.158-1.126-1.456-1.989-.155-.449-.342-.575-.526-.353z" fill="#fdfdfd"/><defs><linearGradient id="A" x1="42" y1="0" x2="-9.5" y2="43" gradientUnits="userSpaceOnUse"><stop stop-color="#3690fa"/><stop offset="1" stop-color="#2266d2"/></linearGradient></defs></svg>